<svg width="91" height="149" viewBox="0 0 91 149" fill="none" xmlns="http://www.w3.org/2000/svg">
<path fill-rule="evenodd" clip-rule="evenodd" d="M68.489 67.3085C68.3618 68.0953 68.052 68.8441 67.5828 69.4989C67.1136 70.1536 66.4971 70.6973 65.7795 71.0892C64.3345 71.9908 63.07 72.4416 61.7906 72.8924C59.0661 73.8012 56.1986 74.71 53.1655 75.7643C49.9668 76.8185 47.0993 77.8727 44.5404 78.6362C41.3493 79.6904 38.3162 80.5992 35.4336 81.6535C33.2649 82.55 31.2279 83.7185 29.375 85.1288C27.6518 86.637 26.1479 88.3638 24.9044 90.2619C23.6249 92.3704 22.8196 95.0896 22.8196 98.2596C22.8196 104.607 24.4152 109.435 27.6138 112.452C30.805 115.629 36.7206 117.134 45.4887 117.134C54.4299 117.134 60.4961 115.476 63.7023 112.154C66.8859 108.831 68.4814 104.156 68.4814 98.1214V67.3085H68.489ZM45.4962 0.418701C61.1509 0.418701 72.6435 3.2906 79.9816 9.17981C87.3272 14.9236 91 22.3106 91 31.0644V105.661C91 108.678 90.3678 112.001 89.2539 115.622C88.125 119.257 85.8972 122.573 82.3824 125.583C79.0332 128.614 74.4046 131.181 68.4965 133.144C62.5884 135.107 54.9266 136.161 45.5038 136.161C36.0959 136.161 28.4192 135.107 22.5186 133.144C16.618 131.181 11.9818 128.614 8.63262 125.583C5.51698 122.87 3.15674 119.445 1.76867 115.622C0.639732 112.008 0 108.686 0 105.668V93.7445C0 87.3973 1.75362 81.5081 5.26838 76.3677C8.78314 71.0892 13.7279 67.4685 20.1177 65.2C23.3088 64.1458 26.9816 63.0915 31.1286 61.7319C35.2831 60.3651 39.1064 59.0055 42.9448 57.8058C46.7832 56.5916 50.1324 55.3774 52.9999 54.3159C54.7304 53.647 56.4879 53.0455 58.2683 52.5128L61.1433 51.1532C62.2723 50.5497 63.3786 49.6409 64.5 48.434C65.6139 47.2343 66.5698 45.8747 67.3751 44.3624C68.2259 42.7248 68.6643 40.9162 68.6545 39.0839V34.249C68.6663 32.4769 68.2812 30.7234 67.5256 29.1086C66.8934 27.291 65.6139 25.6333 63.8603 24.1282C62.1067 22.6159 59.7058 21.409 56.8383 20.4929C53.9633 19.5986 50.1399 19.1406 45.8199 19.1406C36.8787 19.1406 30.9706 20.8128 27.7794 24.2736C25.07 27.2982 23.4744 31.0717 23.1583 35.2959C23.1583 36.2048 22.3605 36.8082 21.3972 36.8082L1.92672 37.1136C1.46422 37.1155 1.01964 36.9409 0.689791 36.6277C0.35994 36.3145 0.171528 35.8881 0.165578 35.4413V31.079C0.165578 26.8402 0.970887 22.914 2.72451 19.1406C4.48565 15.3598 7.20263 12.1971 10.8679 9.47064C14.5407 6.75869 19.335 4.49753 25.0775 2.98523C30.6695 1.16758 37.5335 0.418701 45.5113 0.418701H45.4962Z" fill="#0A3871"/>
</svg>
